<svg width="256" height="256" viewBox="0 0 256 256" fill="none" xmlns="http://www.w3.org/2000/svg">
<rect width="256" height="256" rx="128" fill="black"/>
<path fill-rule="evenodd" clip-rule="evenodd" d="M124.489 54.3733C122.3 54.9158 120.508 55.781 120.508 56.2959C120.508 56.8119 120.131 56.9998 119.669 56.7153C118.92 56.2524 115.943 56.9818 100.867 61.3208C88.2686 64.9474 83.3743 66.9115 84.0294 68.0793C84.523 68.9615 84.3266 68.9509 83.3457 68.0421C82.2723 67.0495 81.2043 67.0877 78.4992 68.2173C76.5914 69.0146 74.6751 69.3501 74.2419 68.9615C73.8088 68.573 73.848 68.9339 74.33 69.7631C74.9893 70.8991 74.7515 71.0965 73.3607 70.5625C71.3616 69.796 60.951 72.7623 59.8469 74.4142C59.4742 74.9716 58.7332 75.1584 58.2002 74.8293C56.371 73.6997 40.375 78.9878 40.0098 80.8436C39.6934 82.4499 46.6228 82.5879 127.862 82.5879C203.41 82.5879 216.057 82.3714 216.057 81.0783C216.057 79.3276 195.51 72.5425 193.058 73.4842C192.217 73.8059 191.776 73.67 192.079 73.1816C192.631 72.2866 182.102 69.4881 180.363 70.0678C179.85 70.2387 179.222 69.9011 178.968 69.3172C178.278 67.7342 152.726 60.5426 149.396 60.9938C147.467 61.256 147.096 61.1169 148.273 60.5734C149.483 60.0139 146.686 58.7749 139.248 56.5751C130.428 53.9666 127.747 53.5664 124.489 54.3733ZM130.621 55.8415C130.295 56.1685 129.439 55.8426 128.718 55.1164C127.677 54.0675 127.799 53.9465 129.312 54.5219C130.359 54.9211 130.948 55.5145 130.621 55.8415ZM132.96 56.5167C135.338 55.9976 135.596 56.1123 134.31 57.1145C132.988 58.1432 133.123 58.2653 135.107 57.83C136.422 57.5423 137.267 57.6793 136.985 58.1347C136.297 59.2484 148.933 62.736 150.909 61.9779C151.766 61.6488 152.208 61.8006 151.89 62.3155C151.154 63.5046 156.307 64.8487 157.878 63.8772C158.591 63.4377 158.756 63.6341 158.298 64.3752C157.833 65.13 158.28 65.6014 159.461 65.6024C160.518 65.6024 163.895 66.5579 166.967 67.7258C172.961 70.0041 176.304 70.5392 173.591 68.7864C171.792 67.6228 172.578 67.403 175.09 68.367C176.011 68.7195 176.531 69.3851 176.246 69.8459C175.516 71.0275 180.478 72.1136 182.705 71.259C184.067 70.7366 184.327 70.9203 183.685 71.9586C183.034 73.0107 183.381 73.2188 185.053 72.7825C186.283 72.4597 187.469 72.7325 187.688 73.3865C187.905 74.0416 190.051 74.5777 192.454 74.5777C194.857 74.5777 196.333 74.8803 195.734 75.2497C194.277 76.15 197.323 77.2584 201.547 77.3635C203.396 77.4092 204.31 77.6894 203.577 77.9846C202.843 78.2808 202.438 78.8403 202.678 79.2278C202.918 79.6164 169.047 79.9338 127.409 79.9338C85.7705 79.9338 52.2549 79.5335 52.9291 79.0452C53.6669 78.5101 53.2041 78.3657 51.7644 78.681C50.449 78.9687 49.6411 78.7713 49.9692 78.2426C50.2962 77.7128 52.0097 77.2796 53.7774 77.2796C58.765 77.2796 73.0688 72.8419 71.4498 71.7962C70.6641 71.2898 71.5527 71.1953 73.5295 71.5743C75.8843 72.0265 76.9799 71.8291 76.9799 70.9543C76.9799 70.2483 77.5777 69.8799 78.307 70.1336C80.3921 70.8619 90.0193 67.696 91.6192 65.7574C92.4133 64.7956 92.7286 64.6576 92.3199 65.4496C91.7837 66.491 92.1298 66.7257 93.5684 66.2968C94.663 65.9698 96.9179 65.3774 98.5794 64.9803C100.85 64.4378 101.245 64.0131 100.172 63.2678C99.1835 62.582 99.4701 62.4812 101.105 62.9409C103.207 63.5311 114.906 60.6901 116.261 59.2601C116.553 58.9522 117.27 58.6762 117.854 58.6454C121.586 58.4511 126.755 56.7057 126.21 55.8245C125.848 55.2396 126.55 55.3022 127.79 55.9657C129.016 56.6229 131.343 56.8703 132.96 56.5167ZM144.395 59.2314C145.796 59.8334 145.976 60.1636 144.926 60.2018C144.05 60.2347 142.617 59.7973 141.741 59.2314C139.8 57.9776 141.477 57.9776 144.395 59.2314ZM66.0756 73.6742C65.7232 74.0267 64.8069 74.0649 64.0415 73.7581C63.1943 73.4194 63.4459 73.1678 64.6827 73.1169C65.8017 73.0712 66.4281 73.3218 66.0756 73.6742ZM47.7843 79.403C47.4233 79.9869 46.3203 80.4572 45.3329 80.4487C43.7861 80.4338 43.7574 80.2894 45.1301 79.403C47.2089 78.0589 48.6145 78.0589 47.7843 79.403ZM210.749 79.403C212.883 80.0867 212.987 80.2587 211.28 80.2841C210.112 80.3011 208.201 79.9051 207.033 79.403C204.328 78.2404 207.119 78.2404 210.749 79.403ZM62.8907 81.1059C62.5382 81.4583 61.622 81.4965 60.8565 81.1897C60.0093 80.8511 60.2609 80.5994 61.4978 80.5485C62.6167 80.5028 63.2431 80.7534 62.8907 81.1059ZM69.2606 81.1059C68.9081 81.4583 67.9919 81.4965 67.2265 81.1897C66.3793 80.8511 66.6309 80.5994 67.8677 80.5485C68.9867 80.5028 69.6131 80.7534 69.2606 81.1059ZM153.685 81.2598C138.942 81.4265 114.815 81.4265 100.071 81.2598C85.3278 81.0931 97.3904 80.9572 126.878 80.9572C156.366 80.9572 168.429 81.0931 153.685 81.2598ZM189.802 81.1611C189.083 81.452 187.65 81.47 186.617 81.2003C185.584 80.9307 186.172 80.6929 187.923 80.6716C189.675 80.6504 190.52 80.8702 189.802 81.1611ZM197.213 81.1674C196.484 81.4626 195.289 81.4626 194.559 81.1674C193.829 80.8734 194.426 80.6324 195.886 80.6324C197.346 80.6324 197.943 80.8734 197.213 81.1674ZM40.8835 89.4887C40.8835 90.7128 42.2467 91.0812 46.7853 91.0812C50.4491 91.0812 52.4386 90.6788 52.0309 90.0196C51.67 89.4356 51.8812 88.9579 52.4991 88.9579C53.117 88.9579 53.6234 89.4356 53.6234 90.0196C53.6234 90.6035 54.1298 91.0812 54.7477 91.0812C55.3656 91.0812 55.5344 90.4846 55.1225 89.7541C54.5237 88.6925 54.6596 88.6925 55.803 89.7541C56.8148 90.6926 61.1294 91.0239 70.5569 90.8837C83.7544 90.6873 83.7947 90.6788 74.8566 90.0196C69.8934 89.6533 94.7362 89.3635 130.063 89.3751C165.39 89.3868 187.605 89.6777 179.43 90.0196C165.634 90.5971 166.206 90.6459 187.393 90.7022C199.947 90.7351 208.068 90.4283 205.441 90.0196C200.734 89.2881 200.763 89.2743 207.361 89.1171C211.593 89.0163 213.818 89.3486 213.403 90.0196C213.042 90.6035 213.254 91.0812 213.871 91.0812C214.489 91.0812 214.996 90.3646 214.996 89.4887C214.996 88.0863 204.615 87.8962 127.94 87.8962C51.2644 87.8962 40.8835 88.0863 40.8835 89.4887ZM63.4438 89.6607C62.7144 89.9559 61.52 89.9559 60.7896 89.6607C60.0603 89.3666 60.6569 89.1256 62.1167 89.1256C63.5765 89.1256 64.1742 89.3666 63.4438 89.6607ZM85.7588 90.7553C86.7918 91.0249 88.225 91.0069 88.9438 90.716C89.6625 90.4251 88.8175 90.2054 87.0657 90.2266C85.314 90.2478 84.7258 90.4856 85.7588 90.7553ZM93.1703 90.7797C94.7755 91.0228 97.4042 91.0228 99.0094 90.7797C100.615 90.5366 99.3013 90.3381 96.0898 90.3381C92.8783 90.3381 91.565 90.5366 93.1703 90.7797ZM104.318 90.7224C105.048 91.0175 106.242 91.0175 106.972 90.7224C107.702 90.4283 107.105 90.1873 105.645 90.1873C104.185 90.1873 103.588 90.4283 104.318 90.7224ZM117.64 90.8105C122.779 91.0058 130.901 91.0048 135.689 90.8084C140.478 90.612 136.274 90.4527 126.347 90.4538C116.421 90.4548 112.503 90.6162 117.64 90.8105ZM151.562 90.7924C153.752 91.0218 157.335 91.0218 159.524 90.7924C161.714 90.5642 159.922 90.3763 155.543 90.3763C151.163 90.3763 149.372 90.5642 151.562 90.7924ZM51.0149 97.3779C50.6784 97.9215 50.8896 98.6657 51.4831 99.0331C52.0766 99.3993 52.5618 99.1021 52.5618 98.3727C52.5618 97.62 53.289 97.9374 54.2413 99.1063C55.8964 101.138 55.9113 101.137 55.2499 99.0437C54.7732 97.5297 55.5089 97.9289 57.818 100.437C59.8639 102.659 61.055 103.361 61.055 102.346C61.055 101.464 60.2376 100.285 59.2396 99.7253C57.7288 98.8802 57.8732 98.7379 60.1038 98.877C62.2823 99.0118 62.6964 99.4928 62.3227 101.448C62.07 102.77 61.4425 104.112 60.9287 104.431C60.4138 104.748 59.9934 123.134 59.9934 145.289C59.9934 180.386 60.1983 185.569 61.5859 185.569C62.9703 185.569 63.1784 180.792 63.1784 148.942C63.1784 120.42 63.4724 112.285 64.5054 112.179C65.2359 112.104 66.9069 111.931 68.2212 111.793C70.7915 111.523 71.2533 112.308 69.5345 114.027C67.8444 115.717 68.631 193.226 70.3446 193.797C71.3914 194.146 71.6716 185.168 71.6716 151.242C71.6716 117.859 71.3744 108.116 70.3446 107.668C69.6152 107.35 70.3318 107.362 71.9371 107.694C73.7992 108.079 74.8566 107.849 74.8566 107.058C74.8566 106.377 75.3344 106.114 75.9183 106.475C76.5946 106.894 76.9799 121.349 76.9799 146.35C76.9799 180.504 77.1859 185.569 78.5724 185.569C79.96 185.569 80.167 180.283 80.1808 144.43C80.1904 121.804 80.5492 102.737 80.9803 102.061C81.4103 101.385 83.5527 100.495 85.7408 100.084C88.07 99.6478 89.7199 98.7273 89.7199 97.8642C89.7199 96.6603 86.2175 96.3895 70.6726 96.3895C60.0624 96.3895 51.3546 96.8269 51.0149 97.3779ZM108.83 97.9342C108.83 98.8558 110.313 99.7571 112.507 100.168C116.542 100.925 117.992 102.185 118.549 105.414C118.751 106.581 119.393 107.888 119.977 108.317C120.642 108.806 120.561 109.103 119.76 109.114C118.786 109.125 118.463 118.305 118.411 147.445C118.357 177.966 118.617 185.669 119.691 185.31C120.739 184.961 121.089 176.867 121.263 148.918C121.501 110.868 121.287 112.407 126.553 110.797C128.748 110.127 128.825 110.289 127.88 113.582C127.329 115.505 126.878 134.399 126.878 155.57C126.878 189.481 127.072 194.062 128.509 194.062C129.954 194.062 130.105 189.133 129.836 150.8L129.532 107.537L132.452 107.314L135.371 107.092V146.33C135.371 183.024 135.491 185.564 137.229 185.485C138.25 185.439 138.609 185.201 138.025 184.954C137.178 184.598 137.055 114.487 137.88 102.186C137.994 100.498 138.686 100.066 141.02 100.227C143.255 100.382 143.863 100.043 143.421 98.8876C143.095 98.0372 143.203 97.5733 143.662 97.8567C144.121 98.1402 145.191 97.9342 146.039 97.397C147.009 96.7834 140.396 96.4161 128.205 96.4054C111.951 96.3916 108.83 96.638 108.83 97.9342ZM166.159 97.8313C166.159 98.67 168.045 99.67 170.671 100.224L175.184 101.175L175.732 143.638C176.035 166.992 176.471 183.472 176.702 180.261L177.122 174.422L177.838 180.261C178.232 183.472 178.631 169.738 178.726 149.738C178.839 126.089 178.528 113.376 177.838 113.376C177.254 113.376 176.778 113.017 176.78 112.58C176.783 112.142 178.456 111.698 180.496 111.594L184.208 111.404V152.733C184.208 189.026 184.404 194.062 185.823 194.062C187.248 194.062 187.405 188.949 187.151 150.8L186.862 107.537L189.781 107.424L192.701 107.311V146.44C192.701 180.251 192.914 185.569 194.27 185.569C195.623 185.569 195.878 179.721 196.128 143.048C196.313 115.801 196.036 100.089 195.355 99.307C194.771 98.6339 195.093 98.687 196.071 99.4237C198.333 101.128 205.441 99.945 205.441 97.8642C205.441 96.6592 201.851 96.3895 185.8 96.3895C169.963 96.3895 166.159 96.6687 166.159 97.8313ZM172.529 98.5128C172.529 99.0968 172.08 99.5745 171.53 99.5745C170.98 99.5745 170.236 99.0968 169.875 98.5128C169.514 97.9289 169.964 97.4512 170.874 97.4512C171.784 97.4512 172.529 97.9289 172.529 98.5128ZM176.422 98.9428C176.422 99.7624 175.788 100.19 175.013 99.893C174.238 99.5957 173.867 98.9248 174.191 98.4014C175.089 96.948 176.422 97.2707 176.422 98.9428ZM65.6096 100.637C65.9153 101.806 65.7316 102.495 65.2029 102.167C64.6732 101.84 64.24 102.397 64.24 103.405C64.24 104.412 63.9438 104.94 63.5818 104.578C62.9363 103.933 63.9066 98.5128 64.6668 98.5128C64.8802 98.5128 65.3038 99.4694 65.6096 100.637ZM80.4303 99.2157C79.701 99.5108 78.5066 99.5108 77.7762 99.2157C77.0468 98.9216 77.6435 98.6806 79.1033 98.6806C80.563 98.6806 81.1608 98.9216 80.4303 99.2157ZM118.385 99.5745C118.385 100.158 117.878 100.636 117.26 100.636C116.643 100.636 116.431 100.158 116.792 99.5745C117.153 98.9906 117.659 98.5128 117.916 98.5128C118.174 98.5128 118.385 98.9906 118.385 99.5745ZM124.755 99.5745C124.755 100.158 124.544 100.636 124.286 100.636C124.028 100.636 123.523 100.158 123.162 99.5745C122.801 98.9906 123.012 98.5128 123.63 98.5128C124.248 98.5128 124.755 98.9906 124.755 99.5745ZM121.211 104.087C120.917 104.817 120.676 104.219 120.676 102.759C120.676 101.3 120.917 100.703 121.211 101.432C121.506 102.163 121.506 103.357 121.211 104.087ZM78.616 103.75C77.7136 105.211 75.9183 105.216 75.9183 103.758C75.9183 103.141 76.396 102.929 76.9799 103.29C77.5639 103.651 78.0416 103.36 78.0416 102.645C78.0416 101.929 78.3283 101.631 78.6786 101.981C79.029 102.332 79.0013 103.128 78.616 103.75ZM136.157 104.301C134.528 106.07 134.048 105.736 134.926 103.449C135.294 102.492 136.017 101.972 136.534 102.291C137.051 102.611 136.881 103.515 136.157 104.301ZM124.267 106.935C123.883 107.558 123.1 108.068 122.527 108.068C121.954 108.068 122.102 107.399 122.855 106.583C124.379 104.928 125.357 105.173 124.267 106.935ZM64.2464 109.129C63.2113 110.589 62.121 112.739 61.8226 113.907C61.5254 115.075 61.3502 114.285 61.434 112.152C61.5179 110.02 61.9447 108.496 62.3821 108.764C62.8195 109.034 63.1784 108.789 63.1784 108.219C63.1784 107.649 62.5817 106.965 61.8513 106.698C61.1219 106.432 61.7855 106.273 63.327 106.345C66.1064 106.474 66.1138 106.497 64.2464 109.129ZM68.1501 109.329C67.8114 110.175 67.5598 109.924 67.5089 108.687C67.4632 107.568 67.7138 106.941 68.0662 107.294C68.4187 107.646 68.4569 108.563 68.1501 109.329ZM184.571 108.544C184.966 109.573 184.651 109.887 183.623 109.493C182.777 109.168 182.084 108.475 182.084 107.954C182.084 106.428 183.926 106.865 184.571 108.544ZM194.558 165.063C194.385 176.049 194.243 167.362 194.243 145.757C194.242 124.152 194.384 115.163 194.557 125.782C194.73 136.399 194.731 154.076 194.558 165.063ZM125.363 109.683C124.238 110.534 123.057 110.971 122.74 110.653C122.073 109.987 124.77 108.092 126.347 108.118C126.931 108.127 126.488 108.832 125.363 109.683ZM180.123 110.453C179.025 111.552 176.776 110.688 176.776 109.167C176.776 108.672 177.763 108.524 178.969 108.841C180.401 109.214 180.802 109.775 180.123 110.453ZM78.7667 111.452C78.428 112.299 78.1764 112.047 78.1255 110.81C78.0798 109.691 78.3304 109.065 78.6828 109.417C79.0353 109.77 79.0735 110.686 78.7667 111.452ZM186.064 167.718C185.889 177.828 185.746 169.856 185.746 150.003C185.746 130.15 185.888 121.879 186.063 131.622C186.239 141.365 186.239 157.608 186.064 167.718ZM120.178 121.604C119.911 122.626 119.693 121.79 119.693 119.746C119.693 117.702 119.911 116.866 120.178 117.888C120.445 118.911 120.445 120.582 120.178 121.604ZM70.3424 167.786C70.1651 176.69 70.0197 169.405 70.0197 151.596C70.0197 133.787 70.1651 126.501 70.3424 135.406C70.5197 144.31 70.5197 158.882 70.3424 167.786ZM78.8347 161.947C78.6499 168.809 78.4981 163.194 78.4981 149.473C78.4981 135.751 78.6499 130.137 78.8347 136.998C79.0194 143.858 79.0194 155.086 78.8347 161.947ZM177.569 161.947C177.384 168.809 177.232 163.194 177.232 149.473C177.232 135.751 177.384 130.137 177.569 136.998C177.754 143.858 177.754 155.086 177.569 161.947ZM78.8039 182.104C78.5597 183.717 78.3537 182.649 78.3452 179.73C78.3378 176.81 78.5374 175.49 78.789 176.795C79.0406 178.101 79.047 180.49 78.8039 182.104ZM120.171 183.645C119.833 184.491 119.581 184.24 119.53 183.003C119.485 181.884 119.735 181.258 120.088 181.61C120.44 181.963 120.478 182.879 120.171 183.645ZM86.1973 183.076C84.1727 185.101 86.6241 185.569 99.2419 185.569C111.368 185.569 112.933 185.368 112.364 183.887C111.845 182.534 111.544 182.482 110.821 183.622C110.149 184.682 109.92 184.705 109.907 183.711C109.886 181.967 90.1923 181.822 89.119 183.559C88.5903 184.415 88.1932 184.411 87.6571 183.543C87.2515 182.888 86.5954 182.678 86.1973 183.076ZM142.803 183.945C142.803 185.319 144.934 185.569 156.693 185.569C167.333 185.569 170.48 185.258 170.143 184.242C169.827 183.295 165.849 182.83 156.252 182.618C144.758 182.364 142.803 182.557 142.803 183.945ZM128.642 189.019C128.348 189.75 128.107 189.152 128.107 187.692C128.107 186.233 128.348 185.636 128.642 186.365C128.938 187.096 128.938 188.29 128.642 189.019ZM49.3768 192.47C49.3768 193.721 50.8514 194.062 56.2776 194.062C61.7037 194.062 63.1784 193.721 63.1784 192.47C63.1784 191.218 61.7037 190.877 56.2776 190.877C50.8514 190.877 49.3768 191.218 49.3768 192.47ZM77.6573 192.47C78.1732 193.813 81.6534 194.062 99.9192 194.062C118.456 194.062 121.57 193.833 121.57 192.47C121.57 191.504 120.63 190.907 119.181 190.952C116.902 191.023 116.89 191.068 118.916 191.939C120.646 192.683 120.708 192.865 119.244 192.926C118.256 192.967 117.153 192.523 116.792 191.939C116.393 191.293 108.476 190.877 96.5909 190.877C79.6543 190.877 77.1286 191.09 77.6573 192.47ZM135.725 192.47C135.725 193.833 138.831 194.062 157.313 194.062C175.793 194.062 178.899 193.833 178.899 192.47C178.899 191.594 178.063 190.885 177.041 190.893C175.453 190.907 175.415 191.06 176.776 191.939C177.832 192.622 172.287 192.899 160.32 192.761L142.272 192.554L158.728 191.939L175.184 191.324L155.455 191.1C138.525 190.909 135.725 191.103 135.725 192.47ZM192.701 192.637C192.701 193.683 194.535 194.062 199.602 194.062C205.132 194.062 206.502 193.735 206.502 192.413C206.502 191.069 205.228 190.806 199.602 190.989C194.647 191.149 192.701 191.614 192.701 192.637ZM61.829 192.58C61.4765 192.933 60.5603 192.971 59.7949 192.664C58.9476 192.325 59.1993 192.074 60.4361 192.023C61.5551 191.977 62.1815 192.228 61.829 192.58ZM141.454 192.58C141.101 192.933 140.185 192.971 139.419 192.664C138.572 192.325 138.824 192.074 140.061 192.023C141.18 191.977 141.806 192.228 141.454 192.58ZM40.8835 200.926C40.8835 202.378 50.3779 202.556 127.94 202.556C204.615 202.556 214.996 202.366 214.996 200.963C214.996 200.087 214.489 199.371 213.871 199.371C213.254 199.371 212.993 199.769 213.294 200.255C213.594 200.742 213.167 201.14 212.342 201.14C211.517 201.14 211.074 200.766 211.357 200.307C211.64 199.849 174.112 199.491 127.961 199.51C71.3001 199.533 44.267 199.895 44.7182 200.624C45.1131 201.265 44.4666 201.214 43.1353 200.501C41.2954 199.516 40.8835 199.594 40.8835 200.926ZM169.057 201.073C168.704 201.426 167.788 201.464 167.023 201.157C166.175 200.819 166.427 200.567 167.664 200.516C168.783 200.47 169.409 200.721 169.057 201.073ZM176.523 201.162C175.508 201.427 173.597 201.437 172.277 201.183C170.956 200.929 171.786 200.711 174.122 200.7C176.458 200.688 177.538 200.896 176.523 201.162ZM183.942 201.164C182.921 201.431 181.248 201.431 180.226 201.164C179.205 200.897 180.041 200.679 182.084 200.679C184.128 200.679 184.964 200.897 183.942 201.164Z" fill="white"/>
</svg>
