<svg width="355" height="366" viewBox="0 0 355 366" fill="none" xmlns="http://www.w3.org/2000/svg">
<path d="M51.584 327.488L16.64 246.08L12.544 322.112C12.3733 323.477 12.544 324.715 13.056 325.824C13.568 326.848 14.6773 327.36 16.384 327.36V328H5.248V327.36C6.86933 327.36 8.02133 326.933 8.704 326.08C9.38667 325.141 9.77067 324.075 9.856 322.88L14.08 244.544C14.2507 243.179 14.08 241.941 13.568 240.832C13.1413 239.637 11.9893 239.04 10.112 239.04V238.4H21.76L55.808 317.632L89.856 238.4H100.864V239.04C99.072 239.04 97.92 239.637 97.408 240.832C96.9813 241.941 96.8107 243.179 96.896 244.544L100.992 320.32C100.992 321.088 101.035 321.899 101.12 322.752C101.291 323.52 101.504 324.288 101.76 325.056C102.101 325.739 102.571 326.293 103.168 326.72C103.851 327.147 104.747 327.36 105.856 327.36V328H89.344V327.36C91.2213 327.36 92.3733 326.763 92.8 325.568C93.312 324.373 93.4827 323.051 93.312 321.6L89.344 246.08L54.272 328H51.328L51.584 327.488ZM169.669 328V327.36C172.741 327.36 173.509 325.269 171.973 321.088L163.781 298.048H129.605L121.413 320.96C119.962 325.227 120.688 327.36 123.589 327.36V328H111.685V327.36C114.757 327.36 117.146 325.013 118.853 320.32L148.037 238.4H150.853L180.037 320.32C181.744 325.013 184.133 327.36 187.205 327.36V328H169.669ZM162.885 295.488L146.629 250.048L130.501 295.488H162.885ZM185.87 283.072C185.87 276.672 187.065 270.656 189.454 265.024C191.929 259.392 195.214 254.528 199.31 250.432C203.491 246.251 208.398 242.965 214.03 240.576C219.662 238.101 225.678 236.864 232.078 236.864C238.307 236.864 244.238 238.016 249.87 240.32C255.502 242.624 260.451 245.952 264.718 250.304V262.848H263.566C263.566 259.52 262.627 256.405 260.75 253.504C258.873 250.517 256.313 247.957 253.07 245.824C249.913 243.605 246.158 241.856 241.806 240.576C237.539 239.296 232.931 238.656 227.982 238.656C222.691 238.656 217.785 239.851 213.262 242.24C208.825 244.544 205.027 247.701 201.87 251.712C198.798 255.723 196.494 260.416 194.958 265.792C193.507 271.168 193.081 276.928 193.678 283.072C194.275 289.216 195.811 294.976 198.286 300.352C200.846 305.728 204.046 310.421 207.886 314.432C211.726 318.443 216.078 321.643 220.942 324.032C225.806 326.336 230.841 327.488 236.046 327.488C239.203 327.488 242.361 327.019 245.518 326.08C248.761 325.056 251.662 323.776 254.222 322.24C256.782 320.619 258.873 318.869 260.494 316.992C262.115 315.029 262.926 313.109 262.926 311.232V300.096C262.926 299.328 262.883 298.56 262.798 297.792C262.798 296.939 262.67 296.171 262.414 295.488C262.158 294.72 261.731 294.123 261.134 293.696C260.537 293.269 259.683 293.056 258.574 293.056V292.416H274.446V293.056C273.337 293.056 272.483 293.269 271.886 293.696C271.289 294.123 270.862 294.72 270.606 295.488C270.35 296.171 270.179 296.939 270.094 297.792C270.094 298.56 270.094 299.328 270.094 300.096V328L262.926 317.632C260.622 319.765 258.361 321.557 256.142 323.008C253.923 324.459 251.577 325.653 249.102 326.592C246.627 327.531 243.982 328.213 241.166 328.64C238.435 329.067 235.406 329.28 232.078 329.28C225.678 329.28 219.662 328.085 214.03 325.696C208.398 323.221 203.491 319.936 199.31 315.84C195.214 311.659 191.929 306.752 189.454 301.12C187.065 295.488 185.87 289.472 185.87 283.072ZM334.294 328V327.36C337.366 327.36 338.134 325.269 336.598 321.088L328.406 298.048H294.23L286.038 320.96C284.587 325.227 285.313 327.36 288.214 327.36V328H276.31V327.36C279.382 327.36 281.771 325.013 283.478 320.32L312.662 238.4H315.478L344.662 320.32C346.369 325.013 348.758 327.36 351.83 327.36V328H334.294ZM327.51 295.488L311.254 250.048L295.126 295.488H327.51Z" fill="black"/>
<path fill-rule="evenodd" clip-rule="evenodd" d="M172.806 0.564616C169.495 1.38526 166.784 2.69413 166.784 3.47303C166.784 4.25353 166.214 4.53779 165.515 4.10739C164.381 3.40719 159.878 4.51049 137.074 11.0741C118.016 16.56 110.612 19.5311 111.603 21.2976C112.35 22.6322 112.053 22.6161 110.569 21.2414C108.945 19.7399 107.329 19.7977 103.237 21.5064C100.352 22.7125 97.4528 23.22 96.7975 22.6322C96.1423 22.0444 96.2017 22.5904 96.9308 23.8447C97.9281 25.5631 97.5684 25.8618 95.4646 25.054C92.4405 23.8945 76.6924 28.3816 75.0222 30.8804C74.4585 31.7236 73.3376 32.0062 72.5314 31.5084C69.7643 29.7996 45.5672 37.7989 45.0148 40.6062C44.5362 43.036 55.0183 43.2448 177.908 43.2448C292.189 43.2448 311.321 42.9172 311.321 40.9611C311.321 38.3129 280.239 28.0491 276.529 29.4736C275.257 29.9602 274.591 29.7547 275.048 29.0159C275.884 27.6621 259.957 23.4288 257.327 24.3056C256.549 24.5642 255.6 24.0535 255.216 23.1702C254.173 20.7757 215.52 9.8969 210.482 10.5794C207.564 10.9761 207.004 10.7657 208.783 9.94348C210.614 9.09713 206.384 7.22296 195.132 3.8954C181.79 -0.0504603 177.735 -0.655918 172.806 0.564616ZM182.082 2.78568C181.589 3.28032 180.293 2.78727 179.203 1.68879C177.629 0.102093 177.814 -0.0809829 180.102 0.789451C181.686 1.39329 182.577 2.29105 182.082 2.78568ZM185.62 3.80706C189.218 3.02174 189.608 3.19519 187.661 4.71122C185.662 6.2674 185.866 6.45208 188.868 5.79364C190.857 5.35842 192.136 5.56559 191.708 6.25455C190.668 7.93921 209.782 13.2148 212.771 12.0682C214.068 11.5703 214.736 11.8 214.255 12.5789C213.142 14.3775 220.937 16.4107 223.314 14.9412C224.392 14.2764 224.642 14.5735 223.948 15.6944C223.245 16.8363 223.921 17.5493 225.708 17.5509C227.306 17.5509 232.415 18.9963 237.063 20.7629C246.13 24.2093 251.185 25.0187 247.082 22.3672C244.36 20.6071 245.55 20.2746 249.35 21.7329C250.742 22.266 251.529 23.273 251.099 23.97C249.994 25.7574 257.5 27.4003 260.869 26.1075C262.93 25.3174 263.322 25.5952 262.352 27.1659C261.367 28.7574 261.891 29.0721 264.42 28.4121C266.281 27.9239 268.075 28.3366 268.406 29.3259C268.735 30.3167 271.981 31.1278 275.615 31.1278C279.251 31.1278 281.484 31.5855 280.578 32.1443C278.374 33.5062 282.982 35.1828 289.37 35.3418C292.168 35.4109 293.551 35.8349 292.441 36.2813C291.331 36.7294 290.72 37.5757 291.082 38.1619C291.445 38.7497 240.209 39.2299 177.223 39.2299C114.237 39.2299 63.5379 38.6244 64.5577 37.8857C65.6739 37.0763 64.9737 36.8579 62.796 37.3348C60.8062 37.77 59.5841 37.4713 60.0803 36.6716C60.5749 35.8702 63.167 35.2149 65.8409 35.2149C73.3857 35.2149 95.0229 28.502 92.5738 26.9201C91.3854 26.1541 92.7296 26.0112 95.7199 26.5845C99.2819 27.2686 100.939 26.9699 100.939 25.6466C100.939 24.5786 101.843 24.0214 102.947 24.4052C106.101 25.5069 120.664 20.7179 123.084 17.7854C124.285 16.3304 124.762 16.1216 124.144 17.3197C123.333 18.8951 123.856 19.25 126.033 18.6012C127.688 18.1066 131.099 17.2104 133.613 16.6098C137.048 15.7892 137.645 15.1468 136.022 14.0194C134.526 12.982 134.96 12.8294 137.433 13.5248C140.613 14.4177 158.309 10.1201 160.36 7.95687C160.802 7.49114 161.886 7.0736 162.769 7.02703C168.414 6.73314 176.233 4.09293 175.41 2.75998C174.862 1.87509 175.923 1.96984 177.799 2.97357C179.654 3.96766 183.174 4.34184 185.62 3.80706ZM202.918 7.91352C205.036 8.82411 205.309 9.32356 203.721 9.38138C202.396 9.43116 200.228 8.7695 198.903 7.91352C195.968 6.01688 198.503 6.01688 202.918 7.91352ZM84.4444 29.7611C83.9112 30.2943 82.5253 30.3521 81.3674 29.888C80.0858 29.3757 80.4665 28.995 82.3374 28.9179C84.0301 28.8489 84.9776 29.2279 84.4444 29.7611ZM56.7752 38.4269C56.2292 39.3102 54.5606 40.0216 53.0671 40.0088C50.7272 39.9863 50.6838 39.7679 52.7603 38.4269C55.9048 36.3937 58.0311 36.3937 56.7752 38.4269ZM303.291 38.4269C306.519 39.4611 306.676 39.7213 304.094 39.7598C302.327 39.7855 299.437 39.1865 297.67 38.4269C293.578 36.6683 297.8 36.6683 303.291 38.4269ZM79.6265 41.0029C79.0933 41.536 77.7074 41.5938 76.5495 41.1297C75.2679 40.6174 75.6486 40.2368 77.5195 40.1597C79.2122 40.0906 80.1597 40.4697 79.6265 41.0029ZM89.2623 41.0029C88.7291 41.536 87.3432 41.5938 86.1853 41.1297C84.9037 40.6174 85.2844 40.2368 87.1553 40.1597C88.848 40.0906 89.7955 40.4697 89.2623 41.0029ZM216.97 41.2357C194.668 41.4878 158.173 41.4878 135.869 41.2357C113.567 40.9836 131.814 40.778 176.42 40.778C221.025 40.778 239.274 40.9836 216.97 41.2357ZM271.604 41.0864C270.516 41.5264 268.348 41.5537 266.786 41.1458C265.223 40.7379 266.113 40.3781 268.763 40.346C271.413 40.3139 272.691 40.6463 271.604 41.0864ZM282.815 41.096C281.712 41.5425 279.905 41.5425 278.8 41.096C277.697 40.6511 278.599 40.2866 280.807 40.2866C283.016 40.2866 283.92 40.6511 282.815 41.096ZM46.3365 53.6836C46.3365 55.5352 48.3985 56.0925 55.264 56.0925C60.8062 56.0925 63.8158 55.4838 63.1991 54.4865C62.6531 53.6033 62.9726 52.8806 63.9073 52.8806C64.842 52.8806 65.608 53.6033 65.608 54.4865C65.608 55.3698 66.3741 56.0925 67.3088 56.0925C68.2434 56.0925 68.4988 55.1899 67.8757 54.085C66.9699 52.4791 67.1755 52.4791 68.9051 54.085C70.4356 55.5047 76.9622 56.0058 91.2232 55.7938C111.187 55.4967 111.248 55.4838 97.7274 54.4865C90.2195 53.9325 127.799 53.4941 181.238 53.5117C234.676 53.5294 268.281 53.9694 255.915 54.4865C235.045 55.3602 235.911 55.4341 267.96 55.5192C286.95 55.569 299.236 55.1048 295.261 54.4865C288.142 53.38 288.185 53.3591 298.166 53.1215C304.568 52.9689 307.934 53.4716 307.306 54.4865C306.76 55.3698 307.079 56.0925 308.014 56.0925C308.949 56.0925 309.715 55.0085 309.715 53.6836C309.715 51.5621 294.012 51.2746 178.026 51.2746C62.0396 51.2746 46.3365 51.5621 46.3365 53.6836ZM80.4632 53.9437C79.3599 54.3902 77.5532 54.3902 76.4483 53.9437C75.345 53.4989 76.2476 53.1343 78.4558 53.1343C80.664 53.1343 81.5681 53.4989 80.4632 53.9437ZM114.219 55.5995C115.782 56.0074 117.95 55.9801 119.037 55.5401C120.124 55.1 118.846 54.7676 116.196 54.7997C113.546 54.8318 112.656 55.1915 114.219 55.5995ZM125.43 55.6364C127.858 56.0042 131.835 56.0042 134.263 55.6364C136.691 55.2686 134.705 54.9683 129.847 54.9683C124.989 54.9683 123.002 55.2686 125.43 55.6364ZM142.293 55.5497C143.398 55.9961 145.205 55.9961 146.308 55.5497C147.413 55.1048 146.509 54.7403 144.3 54.7403C142.092 54.7403 141.19 55.1048 142.293 55.5497ZM162.446 55.683C170.219 55.9785 182.505 55.9769 189.748 55.6798C196.992 55.3827 190.632 55.1418 175.617 55.1434C160.601 55.145 154.675 55.3891 162.446 55.683ZM213.758 55.6557C217.072 56.0026 222.492 56.0026 225.803 55.6557C229.116 55.3104 226.405 55.0261 219.781 55.0261C213.156 55.0261 210.447 55.3104 213.758 55.6557ZM61.6622 65.6175C61.1531 66.4397 61.4727 67.5655 62.3704 68.1212C63.2681 68.6753 64.0021 68.2256 64.0021 67.1223C64.0021 65.9836 65.1022 66.4638 66.5427 68.232C69.0464 71.3058 69.0689 71.3042 68.0684 68.1372C67.3473 65.8471 68.4602 66.451 71.9532 70.2443C75.0479 73.6056 76.8498 74.6687 76.8498 73.1334C76.8498 71.7988 75.6132 70.0146 74.1036 69.1683C71.8183 67.8899 72.0367 67.6747 75.4109 67.8851C78.7063 68.0891 79.3326 68.8166 78.7673 71.7748C78.3851 73.7742 77.436 75.8041 76.6587 76.2859C75.8798 76.7661 75.2438 104.578 75.2438 138.092C75.2438 191.183 75.5538 199.023 77.6528 199.023C79.747 199.023 80.0617 191.797 80.0617 143.618C80.0617 100.473 80.5066 88.1668 82.0692 88.0062C83.1741 87.8938 85.7019 87.6321 87.6901 87.4233C91.5781 87.0154 92.2767 88.2022 89.6767 90.8023C87.12 93.3589 88.31 210.606 90.902 211.47C92.4855 211.998 92.9095 198.416 92.9095 147.098C92.9095 96.5998 92.4598 81.8602 90.902 81.1825C89.7987 80.7023 90.8827 80.72 93.311 81.2226C96.1278 81.8056 97.7274 81.4571 97.7274 80.2607C97.7274 79.2296 98.4501 78.833 99.3333 79.379C100.356 80.0118 100.939 101.879 100.939 139.697C100.939 191.361 101.251 199.023 103.348 199.023C105.447 199.023 105.76 191.027 105.781 136.792C105.796 102.566 106.339 73.7244 106.991 72.7014C107.641 71.6784 110.882 70.3326 114.192 69.7111C117.715 69.051 120.211 67.6587 120.211 66.353C120.211 64.5319 114.913 64.1223 91.3983 64.1223C75.3482 64.1223 62.1761 64.784 61.6622 65.6175ZM149.118 66.459C149.118 67.853 151.362 69.2165 154.681 69.838C160.784 70.983 162.978 72.8893 163.821 77.773C164.126 79.5396 165.098 81.5165 165.981 82.1654C166.986 82.9041 166.864 83.3538 165.652 83.3698C164.179 83.3875 163.691 97.2743 163.612 141.353C163.53 187.523 163.924 199.174 165.547 198.632C167.134 198.103 167.662 185.859 167.926 143.582C168.285 86.0245 167.963 88.3515 175.928 85.9169C179.248 84.9035 179.365 85.1476 177.936 90.1293C177.102 93.0377 176.42 121.619 176.42 153.644C176.42 204.941 176.714 211.871 178.886 211.871C181.072 211.871 181.302 204.415 180.894 146.428L180.435 80.985L184.851 80.6477L189.267 80.3121V139.667C189.267 195.174 189.449 199.015 192.078 198.897C193.623 198.828 194.166 198.466 193.282 198.094C192.001 197.554 191.814 91.4976 193.062 72.8909C193.234 70.3374 194.281 69.6838 197.813 69.9279C201.193 70.1624 202.114 69.6485 201.444 67.9012C200.951 66.6148 201.115 65.913 201.808 66.3418C202.504 66.7706 204.121 66.459 205.404 65.6464C206.872 64.7182 196.868 64.1625 178.427 64.1464C153.84 64.1255 149.118 64.4981 149.118 66.459ZM235.84 66.3032C235.84 67.572 238.693 69.0848 242.666 69.9231L249.491 71.362L250.321 135.594C250.779 170.922 251.439 195.852 251.788 190.994L252.424 182.161L253.506 190.994C254.102 195.852 254.706 175.075 254.85 144.822C255.02 109.049 254.55 89.8178 253.506 89.8178C252.623 89.8178 251.903 89.275 251.907 88.6133C251.911 87.9517 254.441 87.2788 257.527 87.1214L263.142 86.8339V149.353C263.142 204.253 263.439 211.871 265.586 211.871C267.741 211.871 267.979 204.137 267.594 146.428L267.157 80.985L271.573 80.8147L275.99 80.6429V139.834C275.99 190.979 276.312 199.023 278.363 199.023C280.409 199.023 280.796 190.178 281.174 134.703C281.453 93.4858 281.034 69.7191 280.004 68.5355C279.121 67.5173 279.608 67.5976 281.087 68.7122C284.509 71.2898 295.261 69.5007 295.261 66.353C295.261 64.5303 289.831 64.1223 265.551 64.1223C241.595 64.1223 235.84 64.5447 235.84 66.3032ZM245.476 67.3343C245.476 68.2175 244.797 68.9402 243.965 68.9402C243.133 68.9402 242.007 68.2175 241.461 67.3343C240.915 66.451 241.596 65.7283 242.973 65.7283C244.349 65.7283 245.476 66.451 245.476 67.3343ZM251.365 67.9847C251.365 69.2245 250.405 69.8717 249.233 69.422C248.06 68.9724 247.5 67.9574 247.99 67.1656C249.348 64.9671 251.365 65.4553 251.365 67.9847ZM83.7394 70.5478C84.2019 72.316 83.9241 73.3582 83.1243 72.862C82.3229 72.3674 81.6677 73.2105 81.6677 74.7346C81.6677 76.2586 81.2196 77.0568 80.672 76.5091C79.6956 75.5327 81.1634 67.3343 82.3133 67.3343C82.6361 67.3343 83.2769 68.7812 83.7394 70.5478ZM106.159 68.3974C105.055 68.8439 103.249 68.8439 102.144 68.3974C101.04 67.9526 101.943 67.588 104.151 67.588C106.359 67.588 107.264 67.9526 106.159 68.3974ZM163.572 68.9402C163.572 69.8235 162.806 70.5462 161.871 70.5462C160.937 70.5462 160.617 69.8235 161.163 68.9402C161.709 68.057 162.473 67.3343 162.864 67.3343C163.254 67.3343 163.572 68.057 163.572 68.9402ZM173.208 68.9402C173.208 69.8235 172.89 70.5462 172.5 70.5462C172.109 70.5462 171.345 69.8235 170.799 68.9402C170.253 68.057 170.572 67.3343 171.507 67.3343C172.442 67.3343 173.208 68.057 173.208 68.9402ZM167.847 75.7656C167.402 76.8705 167.038 75.9663 167.038 73.7581C167.038 71.5499 167.402 70.6474 167.847 71.7507C168.293 72.8556 168.293 74.6623 167.847 75.7656ZM103.414 75.2565C102.049 77.4663 99.3333 77.4743 99.3333 75.2693C99.3333 74.3347 100.056 74.0151 100.939 74.5611C101.823 75.1071 102.545 74.6671 102.545 73.5847C102.545 72.5023 102.979 72.051 103.509 72.5809C104.039 73.1109 103.997 74.3154 103.414 75.2565ZM190.456 76.09C187.992 78.7655 187.266 78.2613 188.595 74.8004C189.15 73.3534 190.244 72.5665 191.026 73.0499C191.808 73.5333 191.551 74.9016 190.456 76.09ZM172.471 80.0744C171.889 81.0171 170.704 81.788 169.838 81.788C168.971 81.788 169.194 80.7762 170.335 79.5412C172.639 77.0391 174.118 77.4085 172.471 80.0744ZM81.6773 83.3939C80.1115 85.6021 78.4622 88.8542 78.0109 90.6208C77.5613 92.3873 77.2963 91.1925 77.4231 87.9661C77.55 84.7413 78.1956 82.4352 78.8573 82.8415C79.5189 83.2494 80.0617 82.8784 80.0617 82.016C80.0617 81.1552 79.1592 80.1194 78.0543 79.7163C76.951 79.3132 77.9547 79.0723 80.2866 79.1815C84.491 79.3774 84.5022 79.4111 81.6773 83.3939ZM87.5825 83.6959C87.0702 84.9758 86.6896 84.5952 86.6125 82.7242C86.5434 81.0315 86.9224 80.084 87.4556 80.6172C87.9888 81.1504 88.0466 82.5363 87.5825 83.6959ZM263.691 82.509C264.289 84.0652 263.813 84.5406 262.257 83.9432C260.977 83.4517 259.93 82.4047 259.93 81.6161C259.93 79.3067 262.716 79.9684 263.691 82.509ZM278.798 168.004C278.537 184.623 278.323 171.481 278.323 138.8C278.321 106.118 278.535 92.5206 278.797 108.584C279.059 124.645 279.06 151.384 278.798 168.004ZM174.128 84.2306C172.426 85.5186 170.64 86.1803 170.16 85.6985C169.151 84.6915 173.23 81.8249 175.617 81.8634C176.5 81.8779 175.83 82.9443 174.128 84.2306ZM256.964 85.3966C255.302 87.0587 251.9 85.7515 251.9 83.4501C251.9 82.7018 253.394 82.4785 255.218 82.9571C257.383 83.5224 257.99 84.3703 256.964 85.3966ZM103.642 86.9078C103.13 88.1877 102.749 87.8071 102.672 85.9362C102.603 84.2435 102.982 83.296 103.515 83.8291C104.048 84.3623 104.106 85.7483 103.642 86.9078ZM265.951 172.021C265.686 187.314 265.469 175.255 265.469 145.224C265.469 115.192 265.684 102.68 265.949 117.418C266.214 132.156 266.214 156.727 265.951 172.021ZM166.284 102.264C165.881 103.811 165.551 102.545 165.551 99.4536C165.551 96.3621 165.881 95.0966 166.284 96.6431C166.689 98.1897 166.689 100.717 166.284 102.264ZM90.8988 172.124C90.6306 185.593 90.4106 174.573 90.4106 147.633C90.4106 120.692 90.6306 109.672 90.8988 123.142C91.167 136.611 91.167 158.654 90.8988 172.124ZM103.745 163.291C103.465 173.67 103.236 165.178 103.236 144.421C103.236 123.664 103.465 115.171 103.745 125.551C104.024 135.928 104.024 152.911 103.745 163.291ZM253.1 163.291C252.82 173.67 252.591 165.178 252.591 144.421C252.591 123.664 252.82 115.171 253.1 125.551C253.379 135.928 253.379 152.911 253.1 163.291ZM103.698 193.782C103.329 196.223 103.017 194.607 103.005 190.191C102.993 185.774 103.295 183.776 103.676 185.752C104.056 187.727 104.066 191.341 103.698 193.782ZM166.275 196.113C165.763 197.393 165.382 197.013 165.305 195.142C165.236 193.449 165.615 192.502 166.148 193.035C166.681 193.568 166.739 194.954 166.275 196.113ZM114.882 195.253C111.82 198.315 115.528 199.023 134.615 199.023C152.958 199.023 155.325 198.72 154.465 196.48C153.679 194.432 153.225 194.353 152.131 196.078C151.114 197.682 150.768 197.716 150.748 196.213C150.716 193.574 120.926 193.356 119.302 195.983C118.502 197.278 117.902 197.271 117.091 195.959C116.477 194.968 115.485 194.65 114.882 195.253ZM200.509 196.566C200.509 198.646 203.732 199.023 221.52 199.023C237.615 199.023 242.377 198.553 241.866 197.016C241.389 195.583 235.371 194.88 220.854 194.559C203.467 194.175 200.509 194.467 200.509 196.566ZM179.089 204.243C178.644 205.348 178.279 204.444 178.279 202.235C178.279 200.027 178.644 199.125 179.089 200.228C179.535 201.333 179.535 203.14 179.089 204.243ZM59.1842 209.462C59.1842 211.356 61.4149 211.871 69.623 211.871C77.8311 211.871 80.0617 211.356 80.0617 209.462C80.0617 207.569 77.8311 207.053 69.623 207.053C61.4149 207.053 59.1842 207.569 59.1842 209.462ZM101.964 209.462C102.744 211.494 108.009 211.871 135.639 211.871C163.68 211.871 168.39 211.524 168.39 209.462C168.39 208.001 166.969 207.098 164.776 207.166C161.328 207.273 161.311 207.342 164.375 208.659C166.993 209.785 167.086 210.06 164.871 210.153C163.378 210.214 161.709 209.543 161.163 208.659C160.559 207.683 148.583 207.053 130.605 207.053C104.985 207.053 101.164 207.375 101.964 209.462ZM189.802 209.462C189.802 211.524 194.501 211.871 222.458 211.871C250.413 211.871 255.112 211.524 255.112 209.462C255.112 208.137 253.847 207.065 252.302 207.077C249.899 207.098 249.841 207.33 251.9 208.659C253.498 209.692 245.11 210.111 227.008 209.902L199.706 209.589L224.599 208.659L249.491 207.729L219.647 207.391C194.039 207.101 189.802 207.395 189.802 209.462ZM275.99 209.716C275.99 211.298 278.765 211.871 286.428 211.871C294.794 211.871 296.867 211.377 296.867 209.377C296.867 207.344 294.94 206.946 286.428 207.222C278.933 207.464 275.99 208.168 275.99 209.716ZM78.0206 209.629C77.4874 210.162 76.1014 210.22 74.9435 209.756C73.662 209.244 74.0426 208.863 75.9135 208.786C77.6062 208.717 78.5537 209.096 78.0206 209.629ZM198.468 209.629C197.935 210.162 196.549 210.22 195.391 209.756C194.109 209.244 194.49 208.863 196.361 208.786C198.054 208.717 199.001 209.096 198.468 209.629ZM46.3365 222.254C46.3365 224.451 60.6986 224.719 178.026 224.719C294.012 224.719 309.715 224.431 309.715 222.31C309.715 220.985 308.949 219.901 308.014 219.901C307.079 219.901 306.686 220.503 307.141 221.239C307.595 221.976 306.948 222.578 305.7 222.578C304.452 222.578 303.782 222.011 304.211 221.317C304.638 220.625 247.871 220.083 178.058 220.111C92.3474 220.147 51.4547 220.694 52.1372 221.798C52.7346 222.766 51.7566 222.689 49.7427 221.611C46.9596 220.121 46.3365 220.238 46.3365 222.254ZM240.223 222.477C239.69 223.01 238.304 223.068 237.146 222.604C235.865 222.092 236.245 221.711 238.116 221.634C239.809 221.565 240.756 221.944 240.223 222.477ZM251.518 222.61C249.983 223.012 247.092 223.026 245.094 222.642C243.096 222.259 244.352 221.929 247.885 221.912C251.418 221.894 253.053 222.209 251.518 222.61ZM262.74 222.614C261.195 223.018 258.664 223.018 257.119 222.614C255.575 222.21 256.838 221.88 259.93 221.88C263.021 221.88 264.285 222.21 262.74 222.614Z" fill="black"/>
</svg>
